<svg xmlns="http://www.w3.org/2000/svg" version="1.1" xmlns:xlink="http://www.w3.org/1999/xlink" width="200" height="200"><svg xmlns="http://www.w3.org/2000/svg" version="1.1" xmlns:xlink="http://www.w3.org/1999/xlink" viewBox="0 0 200 200"><rect width="200" height="200" fill="url('#gradient')"></rect><defs><linearGradient id="SvgjsLinearGradient1001" gradientTransform="rotate(151 0.5 0.5)"><stop offset="0%" stop-color="#000000"></stop><stop offset="100%" stop-color="#000000"></stop></linearGradient></defs><g><g fill="#05f6f2" transform="matrix(4.594249605055293,0,0,4.594249605055293,22.979707110888583,132.64651679860094)" stroke="#139682" stroke-width="0.2"><path d="M4.73-14.22L4.73 0L1.31 0L1.31-14.22L4.73-14.22ZM14.44-3.78L14.44-3.78Q14.44-4.53 13.91-4.95Q13.38-5.37 12.04-5.82Q10.70-6.27 9.85-6.69L9.85-6.69Q7.09-8.05 7.09-10.42L7.09-10.42Q7.09-11.60 7.78-12.50Q8.47-13.41 9.73-13.91Q10.99-14.41 12.56-14.41L12.56-14.41Q14.09-14.41 15.31-13.87Q16.52-13.32 17.20-12.31Q17.87-11.30 17.87-10L17.87-10L14.45-10Q14.45-10.87 13.92-11.35Q13.39-11.83 12.48-11.83L12.48-11.83Q11.56-11.83 11.03-11.42Q10.50-11.02 10.50-10.39L10.50-10.39Q10.50-9.84 11.08-9.40Q11.67-8.96 13.14-8.48Q14.62-8.01 15.57-7.46L15.57-7.46Q17.87-6.13 17.87-3.80L17.87-3.80Q17.87-1.93 16.46-0.87Q15.06 0.20 12.61 0.20L12.61 0.20Q10.88 0.20 9.48-0.42Q8.08-1.04 7.37-2.12Q6.66-3.20 6.66-4.61L6.66-4.61L10.10-4.61Q10.10-3.47 10.69-2.92Q11.28-2.38 12.61-2.38L12.61-2.38Q13.46-2.38 13.95-2.75Q14.44-3.12 14.44-3.78ZM28.54 0L27.71-2.66L23.01-2.66L22.19 0L18.53 0L23.74-14.22L26.96-14.22L32.22 0L28.54 0ZM25.35-10.23L23.83-5.30L26.88-5.30L25.35-10.23Z"></path></g></g></svg><style>@media (prefers-color-scheme: light) { :root { filter: none; } }
@media (prefers-color-scheme: dark) { :root { filter: none; } }
</style></svg>